<?xml version="1.0" encoding="UTF-8" standalone="no" ?>
<!DOCTYPE svg PUBLIC "-//W3C//DTD SVG 1.1//EN" "http://www.w3.org/Graphics/SVG/1.1/DTD/svg11.dtd">
<svg xmlns="http://www.w3.org/2000/svg" xmlns:xlink="http://www.w3.org/1999/xlink" version="1.1" width="1080" height="1080" viewBox="0 0 1080 1080" xml:space="preserve">
<desc>Created with Fabric.js 5.2.4</desc>
<defs>
</defs>
<g transform="matrix(1 0 0 1 540 540)" id="812adedc-a84a-4745-98d8-3af0e22ea2bf"  >
</g>
<g transform="matrix(1 0 0 1 540 540)" id="ccd8dc3e-ef4c-4fc9-99d9-26dec809f03e"  >
<rect style="stroke: none; stroke-width: 1; stroke-dasharray: none; stroke-linecap: butt; stroke-dashoffset: 0; stroke-linejoin: miter; stroke-miterlimit: 4; fill: rgb(255,255,255); fill-rule: nonzero; opacity: 1; visibility: hidden;" vector-effect="non-scaling-stroke"  x="-540" y="-540" rx="0" ry="0" width="1080" height="1080" />
</g>
<g transform="matrix(18.67 0 0 18.67 540.06 540.09)"  >
<path style="stroke: none; stroke-width: 1; stroke-dasharray: none; stroke-linecap: butt; stroke-dashoffset: 0; stroke-linejoin: miter; stroke-miterlimit: 4; fill: rgb(73,147,255); fill-rule: nonzero; opacity: 1;" vector-effect="non-scaling-stroke"  transform=" translate(-32, -32.01)" d="M 37 43 C 35.89543050033841 43 35 42.10456949966159 35 41 C 35 39.89543050033841 35.89543050033841 39 37 39 C 38.10456949966159 39 39 39.89543050033841 39 41 C 38.99851267347164 42.10395284193222 38.10395284193222 42.99851267347164 37 43 Z M 29 31 C 29 29.895430500338414 28.104569499661586 29 27 29 C 25.895430500338414 29 25 29.895430500338414 25 31 C 25 32.10456949966159 25.895430500338414 33 27 33 C 28.10395284193222 32.99851267347164 28.99851267347164 32.10395284193222 29 31 Z M 52 40 C 52 51.045694996615865 43.045694996615865 60 32 60 C 20.954305003384132 60 12 51.045694996615865 12 40 C 12 23.9463 30.502 5.0908 31.29 4.2959 C 31.68749829739039 3.9169791621125776 32.31250170260961 3.9169791621125776 32.71 4.2959 C 33.498 5.0908 52 23.9463 52 40 Z M 27 35 C 29.209138999323173 35 31 33.20913899932317 31 31 C 31 28.790861000676827 29.209138999323173 27 27 27 C 24.790861000676827 27 23 28.790861000676827 23 31 C 23.00214989897506 33.20824786895771 24.79175213104229 34.99785010102494 27 35 Z M 38.8 28.6 C 39.014359376978625 28.314187529353124 39.05995646511896 27.935726546759895 38.91961528154181 27.60717965046029 C 38.77927409796466 27.278632754160686 38.47431580857564 27.049914037118917 38.11961525672642 27.007179631848743 C 37.7649147048772 26.96444522657857 37.41435934626699 27.114187506319393 37.2 27.4 L 25.200000000000003 43.4 C 24.868629150101526 43.84182779986463 24.958172200135365 44.46862915010152 25.400000000000002 44.8 C 25.841827799864635 45.131370849898474 26.468629150101524 45.041827799864635 26.8 44.6 Z M 37 45 C 39.20913899932317 45 41 43.20913899932317 41 41 C 41 38.79086100067683 39.20913899932317 37 37 37 C 34.79086100067683 37 33 38.79086100067683 33 41 C 33.00214989897506 43.20824786895771 34.79175213104229 44.99785010102494 37 45 Z M 46.8154 46.0508 C 47.01637215216263 45.54135041487131 46.770172161110416 44.9650196616606 46.26314259441649 44.75801796062688 C 45.75611302772257 44.55101625959316 45.17690211649535 44.7903618110577 44.963899999999995 45.294900000000005 C 43.51238137115636 48.82556451304994 40.68979034232178 51.61574805535551 37.142599999999995 53.0264 C 36.69612899637183 53.20285654086309 36.43805232970909 53.67169004913387 36.52778160519928 54.14330633915586 C 36.61751088068948 54.61492262917786 37.02972371634124 54.95622748187876 37.50979999999999 54.9564 C 37.6355384949337 54.95663804666702 37.760167414626835 54.93287981034207 37.87699999999999 54.8864 C 41.93155915811065 53.275477517665365 45.15768591541823 50.086454249869476 46.8154 46.05080000000001 Z" stroke-linecap="round" />
</g>
<g transform="matrix(1 0 0 1 -422.14 92.19)"  >
<rect style="stroke: none; stroke-width: 1; stroke-dasharray: none; stroke-linecap: butt; stroke-dashoffset: 0; stroke-linejoin: miter; stroke-miterlimit: 4; fill: rgb(255,255,255); fill-opacity: 0; fill-rule: nonzero; opacity: 1;" vector-effect="non-scaling-stroke"  x="-50" y="-50" rx="0" ry="0" width="100" height="100" />
</g>
<g transform="matrix(1 0 0 1 67.86 582.19)"  >
<rect style="stroke: none; stroke-width: 1; stroke-dasharray: none; stroke-linecap: butt; stroke-dashoffset: 0; stroke-linejoin: miter; stroke-miterlimit: 4; fill: rgb(255,255,255); fill-rule: nonzero; opacity: 1; visibility: hidden;" vector-effect="non-scaling-stroke"  x="-540" y="-540" rx="0" ry="0" width="1080" height="1080" />
</g>
</svg>