<?xml version="1.0" encoding="UTF-8" standalone="no" ?>
<!DOCTYPE svg PUBLIC "-//W3C//DTD SVG 1.1//EN" "http://www.w3.org/Graphics/SVG/1.1/DTD/svg11.dtd">
<svg xmlns="http://www.w3.org/2000/svg" xmlns:xlink="http://www.w3.org/1999/xlink" version="1.1" width="1080" height="1080" viewBox="0 0 1080 1080" xml:space="preserve">
<desc>Created with Fabric.js 5.2.4</desc>
<defs>
</defs>
<rect x="0" y="0" width="100%" height="100%" fill="transparent"></rect>
<g transform="matrix(1 0 0 1 540 540)" id="f4493f72-309f-4955-9a51-90917844d425"  >
<rect style="stroke: none; stroke-width: 1; stroke-dasharray: none; stroke-linecap: butt; stroke-dashoffset: 0; stroke-linejoin: miter; stroke-miterlimit: 4; fill: rgb(255,255,255); fill-rule: nonzero; opacity: 1; visibility: hidden;" vector-effect="non-scaling-stroke"  x="-540" y="-540" rx="0" ry="0" width="1080" height="1080" />
</g>
<g transform="matrix(1 0 0 1 540 540)" id="8d5413c0-1842-4081-90ae-965e5e02c634"  >
</g>
<g transform="matrix(11.1 0 0 11.1 462.82 539.78)"  >
<path style="stroke: none; stroke-width: 1; stroke-dasharray: none; stroke-linecap: butt; stroke-dashoffset: 0; stroke-linejoin: miter; stroke-miterlimit: 4; fill: rgb(0,0,0); fill-rule: nonzero; opacity: 1;" vector-effect="non-scaling-stroke"  transform=" translate(905.95, -1000.95)" d="M -895.9 1020.1 L -895.9 963.4 C -895.9 957.9 -900.4 953.4 -905.9 953.4 C -911.4 953.4 -915.9 957.9 -915.9 963.4 L -915.9 1020.1 C -919.6 1023.1 -921.9 1027.7 -921.9 1032.5 C -921.9 1041.3 -914.6999999999999 1048.5 -905.9 1048.5 C -897.1 1048.5 -890 1041.3 -890 1032.5 C -890 1027.7 -892.2 1023.1 -895.9 1020.1 z M -905.9 1045.1 C -912.8 1045.1 -918.4 1039.5 -918.4 1032.6 C -918.4 1028.1999999999998 -916.1 1024.1999999999998 -912.4 1021.8999999999999 L -912.4 963.4999999999999 C -912.4 959.8999999999999 -909.5 956.8999999999999 -905.8 956.8999999999999 C -902.1999999999999 956.8999999999999 -899.1999999999999 959.7999999999998 -899.1999999999999 963.4999999999999 L -899.1999999999999 1021.8999999999999 C -895.5999999999999 1024.1999999999998 -893.1999999999999 1028.1999999999998 -893.1999999999999 1032.6 C -893.4 1039.5 -899 1045.1 -905.9 1045.1 z" stroke-linecap="round" />
</g>
<g transform="matrix(11.1 0 0 11.1 703.68 144.06)"  >
<rect style="stroke: none; stroke-width: 1; stroke-dasharray: none; stroke-linecap: butt; stroke-dashoffset: 0; stroke-linejoin: miter; stroke-miterlimit: 4; fill: rgb(0,0,0); fill-rule: nonzero; opacity: 1;" vector-effect="non-scaling-stroke"  x="-8.15" y="-1.7" rx="0" ry="0" width="16.3" height="3.4" />
</g>
<g transform="matrix(11.1 0 0 11.1 655.95 269.48)"  >
<rect style="stroke: none; stroke-width: 1; stroke-dasharray: none; stroke-linecap: butt; stroke-dashoffset: 0; stroke-linejoin: miter; stroke-miterlimit: 4; fill: rgb(0,0,0); fill-rule: nonzero; opacity: 1;" vector-effect="non-scaling-stroke"  x="-3.85" y="-1.7" rx="0" ry="0" width="7.7" height="3.4" />
</g>
<g transform="matrix(11.1 0 0 11.1 703.68 396.02)"  >
<rect style="stroke: none; stroke-width: 1; stroke-dasharray: none; stroke-linecap: butt; stroke-dashoffset: 0; stroke-linejoin: miter; stroke-miterlimit: 4; fill: rgb(0,0,0); fill-rule: nonzero; opacity: 1;" vector-effect="non-scaling-stroke"  x="-8.15" y="-1.7" rx="0" ry="0" width="16.3" height="3.4" />
</g>
<g transform="matrix(11.1 0 0 11.1 655.95 521.44)"  >
<rect style="stroke: none; stroke-width: 1; stroke-dasharray: none; stroke-linecap: butt; stroke-dashoffset: 0; stroke-linejoin: miter; stroke-miterlimit: 4; fill: rgb(0,0,0); fill-rule: nonzero; opacity: 1;" vector-effect="non-scaling-stroke"  x="-3.85" y="-1.7" rx="0" ry="0" width="7.7" height="3.4" />
</g>
<g transform="matrix(11.1 0 0 11.1 703.68 646.87)"  >
<rect style="stroke: none; stroke-width: 1; stroke-dasharray: none; stroke-linecap: butt; stroke-dashoffset: 0; stroke-linejoin: miter; stroke-miterlimit: 4; fill: rgb(0,0,0); fill-rule: nonzero; opacity: 1;" vector-effect="non-scaling-stroke"  x="-8.15" y="-1.7" rx="0" ry="0" width="16.3" height="3.4" />
</g>
<g transform="matrix(1 0 0 1 1335.31 -245.69)" style=""  >
		<text xml:space="preserve" font-family="'Helvetica Neue', Helvetica, Arial-Unicode, Arial, Sans-serif" font-size="5" font-style="normal" font-weight="bold" style="stroke: none; stroke-width: 1; stroke-dasharray: none; stroke-linecap: butt; stroke-dashoffset: 0; stroke-linejoin: miter; stroke-miterlimit: 4; fill: rgb(0,0,0); fill-rule: nonzero; opacity: 1; white-space: pre;" ><tspan x="-30.84" y="1.57" >Created by Adrien Coquet</tspan></text>
</g>
<g transform="matrix(1 0 0 1 1330.72 -240.69)" style=""  >
		<text xml:space="preserve" font-family="'Helvetica Neue', Helvetica, Arial-Unicode, Arial, Sans-serif" font-size="5" font-style="normal" font-weight="bold" style="stroke: none; stroke-width: 1; stroke-dasharray: none; stroke-linecap: butt; stroke-dashoffset: 0; stroke-linejoin: miter; stroke-miterlimit: 4; fill: rgb(0,0,0); fill-rule: nonzero; opacity: 1; white-space: pre;" ><tspan x="-26.25" y="1.57" >from the Noun Project</tspan></text>
</g>
<g transform="matrix(11.36 0 0 11.36 463.19 742.68)"  >
<path style="stroke: none; stroke-width: 1; stroke-dasharray: none; stroke-linecap: butt; stroke-dashoffset: 0; stroke-linejoin: miter; stroke-miterlimit: 4; fill: rgb(73,147,255); fill-rule: nonzero; opacity: 1;" vector-effect="non-scaling-stroke"  transform=" translate(905.9, -1019.8)" d="M -902.8 1024 L -902.8 1001.1 C -902.8 999.4 -904.1999999999999 998 -905.9 998 C -907.6 998 -909 999.4 -909 1001.1 L -909 1024 C -912.5 1025.3 -915 1028.6 -915 1032.5 C -915 1037.5 -910.9 1041.6 -905.9 1041.6 C -900.9 1041.6 -896.8 1037.5 -896.8 1032.5 C -896.8 1028.6 -899.3 1025.3 -902.8 1024 z" stroke-linecap="round" />
</g>
<g transform="matrix(1 0 0 1 1071.97 32.45)" style=""  >
		<text xml:space="preserve" font-family="'Helvetica Neue', Helvetica, Arial-Unicode, Arial, Sans-serif" font-size="5" font-style="normal" font-weight="bold" style="stroke: none; stroke-width: 1; stroke-dasharray: none; stroke-linecap: butt; stroke-dashoffset: 0; stroke-linejoin: miter; stroke-miterlimit: 4; fill: rgb(0,0,0); fill-rule: nonzero; opacity: 1; white-space: pre;" ><tspan x="-30.84" y="1.57" >Created by Adrien Coquet</tspan></text>
</g>
<g transform="matrix(1 0 0 1 1067.38 37.46)" style=""  >
		<text xml:space="preserve" font-family="'Helvetica Neue', Helvetica, Arial-Unicode, Arial, Sans-serif" font-size="5" font-style="normal" font-weight="bold" style="stroke: none; stroke-width: 1; stroke-dasharray: none; stroke-linecap: butt; stroke-dashoffset: 0; stroke-linejoin: miter; stroke-miterlimit: 4; fill: rgb(0,0,0); fill-rule: nonzero; opacity: 1; white-space: pre;" ><tspan x="-26.25" y="1.57" >from the Noun Project</tspan></text>
</g>
</svg>